<svg width="37" height="54" viewBox="0 0 37 54" fill="none" xmlns="http://www.w3.org/2000/svg">
<path d="M36.053 19.1257L35.4274 19.1049L35.4058 19.7517H36.053V19.1257ZM1.00988 19.1257V19.7517H1.65701L1.63546 19.1049L1.00988 19.1257ZM1.0001 19.1257V18.4998H0.37417V19.1257H1.0001ZM1.0001 53H0.37417V53.6259H1.0001V53ZM36.063 53V53.6259H36.6889V53H36.063ZM36.063 19.1257H36.6889V18.4998H36.063V19.1257ZM35.4369 18.5314C35.4369 18.7234 35.4337 18.9145 35.4274 19.1049L36.6786 19.1466C36.6854 18.9423 36.6888 18.7373 36.6888 18.5314H35.4369ZM18.5314 1.62592C27.8681 1.62592 35.4369 9.19478 35.4369 18.5314H36.6888C36.6888 8.5034 28.5595 0.374075 18.5314 0.374075V1.62592ZM1.62592 18.5314C1.62592 9.19478 9.19478 1.62592 18.5314 1.62592V0.374075C8.5034 0.374075 0.374075 8.5034 0.374075 18.5314H1.62592ZM1.63546 19.1049C1.62912 18.9145 1.62592 18.7234 1.62592 18.5314H0.374075C0.374075 18.7373 0.377503 18.9423 0.384306 19.1466L1.63546 19.1049ZM1.0001 19.7517H1.00988V18.4998H1.0001V19.7517ZM1.62602 53V19.1257H0.37417V53H1.62602ZM36.063 52.3741H1.0001V53.6259H36.063V52.3741ZM35.437 19.1257V53H36.6889V19.1257H35.437ZM36.053 19.7517H36.063V18.4998H36.053V19.7517Z" fill="black"/>
</svg>
