<svg width="44" height="65" viewBox="0 0 44 65" fill="none" xmlns="http://www.w3.org/2000/svg">
<path d="M43.1933 22.818L42.5677 22.7971L42.5462 23.4439H43.1933V22.818ZM1.0119 22.818V23.4439H1.65902L1.63747 22.7971L1.0119 22.818ZM1.00012 22.818V22.192H0.374191V22.818H1.00012ZM1.00012 63.5925H0.374191V64.2184H1.00012V63.5925ZM43.2053 63.5925V64.2184H43.8312V63.5925H43.2053ZM43.2053 22.818H43.8312V22.192H43.2053V22.818ZM42.5793 22.1026C42.5793 22.3351 42.5754 22.5666 42.5677 22.7971L43.8189 22.8388C43.827 22.5944 43.8311 22.349 43.8311 22.1026H42.5793ZM22.1026 1.62592C33.4116 1.62592 42.5793 10.7936 42.5793 22.1026H43.8311C43.8311 10.1023 34.1029 0.374075 22.1026 0.374075V1.62592ZM1.62592 22.1026C1.62592 10.7936 10.7936 1.62592 22.1026 1.62592V0.374075C10.1023 0.374075 0.374075 10.1023 0.374075 22.1026H1.62592ZM1.63747 22.7971C1.6298 22.5666 1.62592 22.3351 1.62592 22.1026H0.374075C0.374075 22.349 0.378178 22.5944 0.386319 22.8388L1.63747 22.7971ZM1.00012 23.4439H1.0119V22.192H1.00012V23.4439ZM1.62604 63.5925V22.818H0.374191V63.5925H1.62604ZM43.2053 62.9666H1.00012V64.2184H43.2053V62.9666ZM42.5794 22.818V63.5925H43.8312V22.818H42.5794ZM43.1933 23.4439H43.2053V22.192H43.1933V23.4439Z" fill="black"/>
</svg>
